Coordinates
version=1
nRows=6
nColumns=36
inDegrees=yes

Units are S.I. units (second, meters, Newtons, ...)
If the header above contains a line with 'inDegrees', this indicates whether rotational values are in degrees (yes) or radians (no).

endheader
time	pelvis_tilt	pelvis_list	pelvis_rotation	pelvis_tx	pelvis_ty	pelvis_tz	hip_flexion_r	hip_adduction_r	hip_rotation_r	knee_angle_r	knee_angle_r_beta	ankle_angle_r	subtalar_angle_r	mtp_angle_r	hip_flexion_l	hip_adduction_l	hip_rotation_l	knee_angle_l	knee_angle_l_beta	ankle_angle_l	subtalar_angle_l	mtp_angle_l	lumbar_extension	lumbar_bending	lumbar_rotation	arm_flex_r	arm_add_r	arm_rot_r	elbow_flex_r	pro_sup_r	arm_flex_l	arm_add_l	arm_rot_l	elbow_flex_l	pro_sup_l
      5.81666670	      1.87965768	      1.26172469	      6.52385987	      0.77256607	      1.06547961	      0.11416522	     -0.87082250	      0.08751007	    -20.96973060	      2.00683551	      0.03502589	    -38.71532287	      5.47084628	     -7.49999987	      2.80304117	     -0.66476320	    -11.69518576	      4.24124001	      0.07402360	    -41.81778126	      5.23746949	     -7.49999987	      1.45933466	     -1.67577065	      5.55976532	    138.98425843	   -155.26822696	    180.50330210	     85.73024405	     82.42443133	    -41.07837569	    -29.49065208	      1.06351059	    104.85343969	     86.23609117
      5.83333330	      1.93819090	      0.98149386	      7.54530295	      0.77804417	      1.04279372	      0.11488098	     -1.06134236	      0.39930396	    -20.48759540	      2.22775249	      0.03888162	    -36.67289966	      5.23401628	     -7.49999987	      2.43183565	     -1.02550455	    -12.33117862	      4.36447633	      0.07617448	    -41.54801157	      4.38031156	     -7.49999987	      2.18288707	     -1.48420463	      4.38902317	    137.85486780	   -156.56645362	    181.05088002	     86.00930800	     82.59720998	    -41.92779047	    -29.33915054	      1.66995472	    105.43010188	     86.41668443
      5.85000000	      2.32220602	      0.40106036	      8.12802003	      0.77735640	      1.01604714	      0.11348554	     -1.01689474	      1.09373303	    -20.62307106	      2.87745219	      0.05022101	    -36.02807507	      4.70066500	     -7.49999987	      2.00762249	     -1.71602907	    -12.93243030	      4.62605661	      0.08073992	    -41.64868517	      3.50488353	     -7.49999987	      2.44338869	     -0.72603260	      3.31091278	    137.15070812	   -156.98836597	    181.78734156	     86.94531829	     85.41902303	    -42.70703297	    -29.03034293	      2.11683832	    106.38629158	     89.23462505
      5.86666670	      2.98801290	      0.18802975	      8.99418227	      0.78126974	      0.98566108	      0.11351064	     -1.54294996	      1.46183775	    -20.30825999	      3.66695931	      0.06400051	    -36.57052911	      3.98088493	     -7.49999987	      1.50511621	     -2.00343555	    -13.36437175	      5.23922439	      0.09144172	    -43.02977750	      1.70661634	     -7.49999987	      2.66619914	     -0.40473455	      2.12150725	    136.40485482	   -157.64092986	    182.61824235	     88.20300706	     82.85182793	    -43.20308949	    -29.49592613	      3.20294642	    107.58935926	     86.26337948
      5.88333330	      3.57085192	      0.34150755	      9.87896161	      0.78562497	      0.95342968	      0.11184258	     -1.92009340	      1.35903593	    -19.62594272	      4.71414540	      0.08227736	    -36.86886063	      3.26546284	     -7.49999987	      1.14290956	     -1.75781632	    -14.00859272	      5.86158557	      0.10230397	    -44.86348130	     -0.11486252	     -7.49999987	      2.80635657	     -0.54262486	      1.11015375	    135.74086952	   -158.31708626	    183.29423723	     89.25354431	     83.15127197	    -43.81226017	    -30.10926953	      3.87049969	    109.08439982	     86.58634379
      5.90000000	      4.25073586	      0.36945621	     10.49197876	      0.78481397	      0.92488069	      0.11133902	     -1.95875502	      1.38007819	    -19.00493685	      6.25219218	      0.10912134	    -35.85241202	      2.29397728	     -7.49999987	      1.21579988	     -1.66600785	    -13.35157868	      7.32901649	      0.12791547	    -45.11476419	     -1.84242708	     -7.49999987	      2.53433434	     -0.44637114	      0.57150325	    135.78114289	   -158.81240352	    184.12395367	     89.87883961	     81.76201723	    -43.73349215	    -30.57222740	      4.78768907	    110.15826550	     84.91941314
